<svg xmlns="http://www.w3.org/2000/svg" viewBox="0 0 1024 1024"><defs><linearGradient id="c01sbg" gradientUnits="userSpaceOnUse" x1="0" y1="0" x2="0" y2="1024"><stop offset="0" stop-color="#0B0918"/><stop offset="1" stop-color="#1B1140"/></linearGradient><filter id="c01sbl" x="-30%" y="-30%" width="160%" height="160%"><feGaussianBlur stdDeviation="30"/></filter><linearGradient id="c01sw0" gradientUnits="userSpaceOnUse" x1="130" y1="0" x2="894" y2="0"><stop offset="0" stop-color="#7C5CFF"/><stop offset="1" stop-color="#22D3EE"/></linearGradient><linearGradient id="c01sw1" gradientUnits="userSpaceOnUse" x1="130" y1="0" x2="894" y2="0"><stop offset="0" stop-color="#22D3EE"/><stop offset="1" stop-color="#FF6B5A"/></linearGradient><linearGradient id="c01sw2" gradientUnits="userSpaceOnUse" x1="130" y1="0" x2="894" y2="0"><stop offset="0" stop-color="#FF6B5A"/><stop offset="1" stop-color="#FFC24A"/></linearGradient></defs><rect width="1024" height="1024" fill="url(#c01sbg)"/><g filter="url(#c01sbl)" opacity="0.5"><path d="M128.0 395.2 L141.7 410.2 L155.4 425.0 L169.1 439.3 L182.9 453.0 L196.6 465.8 L210.3 477.6 L224.0 488.2 L237.7 497.4 L251.4 505.2 L265.1 511.3 L278.9 515.7 L292.6 518.4 L306.3 519.2 L320.0 518.2 L333.7 515.4 L347.4 510.9 L361.1 504.7 L374.9 496.8 L388.6 487.5 L402.3 476.8 L416.0 464.9 L429.7 452.0 L443.4 438.2 L457.1 423.9 L470.9 409.1 L484.6 394.1 L498.3 379.1 L512.0 364.4 L525.7 350.1 L539.4 336.4 L553.1 323.7 L566.9 312.0 L580.6 301.5 L594.3 292.3 L608.0 284.7 L621.7 278.7 L635.4 274.4 L649.1 271.9 L662.9 271.2 L676.6 272.3 L690.3 275.2 L704.0 279.9 L717.7 286.3 L731.4 294.2 L745.1 303.7 L758.9 314.5 L772.6 326.4 L786.3 339.4 L800.0 353.2 L813.7 367.6 L827.4 382.4 L841.1 397.4 L854.9 412.4 L868.6 427.1 L882.3 441.4 L896.0 454.9 " stroke="url(#c01sw0)" stroke-width="92" stroke-linecap="round" fill="none"/><path d="M128.0 571.7 L141.7 582.2 L155.4 591.8 L169.1 600.4 L182.9 607.8 L196.6 613.9 L210.3 618.6 L224.0 621.9 L237.7 623.7 L251.4 623.9 L265.1 622.7 L278.9 619.9 L292.6 615.7 L306.3 610.0 L320.0 603.1 L333.7 594.9 L347.4 585.6 L361.1 575.4 L374.9 564.3 L388.6 552.6 L402.3 540.5 L416.0 528.0 L429.7 515.4 L443.4 502.9 L457.1 490.6 L470.9 478.8 L484.6 467.5 L498.3 457.0 L512.0 447.5 L525.7 439.0 L539.4 431.7 L553.1 425.7 L566.9 421.1 L580.6 417.9 L594.3 416.3 L608.0 416.1 L621.7 417.5 L635.4 420.4 L649.1 424.7 L662.9 430.5 L676.6 437.5 L690.3 445.8 L704.0 455.1 L717.7 465.4 L731.4 476.5 L745.1 488.2 L758.9 500.5 L772.6 512.9 L786.3 525.5 L800.0 538.0 L813.7 550.3 L827.4 562.1 L841.1 573.3 L854.9 583.7 L868.6 593.2 L882.3 601.6 L896.0 608.8 " stroke="url(#c01sw1)" stroke-width="92" stroke-linecap="round" fill="none"/><path d="M128.0 717.2 L141.7 721.9 L155.4 725.3 L169.1 727.6 L182.9 728.7 L196.6 728.6 L210.3 727.2 L224.0 724.6 L237.7 720.8 L251.4 716.0 L265.1 710.1 L278.9 703.2 L292.6 695.5 L306.3 687.0 L320.0 677.9 L333.7 668.3 L347.4 658.4 L361.1 648.3 L374.9 638.1 L388.6 628.1 L402.3 618.2 L416.0 608.8 L429.7 599.9 L443.4 591.6 L457.1 584.2 L470.9 577.6 L484.6 572.0 L498.3 567.5 L512.0 564.1 L525.7 561.9 L539.4 560.9 L553.1 561.1 L566.9 562.6 L580.6 565.2 L594.3 569.1 L608.0 574.0 L621.7 580.0 L635.4 586.9 L649.1 594.7 L662.9 603.3 L676.6 612.4 L690.3 622.0 L704.0 631.9 L717.7 642.1 L731.4 652.2 L745.1 662.3 L758.9 672.1 L772.6 681.5 L786.3 690.4 L800.0 698.6 L813.7 706.0 L827.4 712.5 L841.1 718.0 L854.9 722.4 L868.6 725.7 L882.3 727.9 L896.0 728.8 " stroke="url(#c01sw2)" stroke-width="92" stroke-linecap="round" fill="none"/></g><g><path d="M128.0 395.2 L141.7 410.2 L155.4 425.0 L169.1 439.3 L182.9 453.0 L196.6 465.8 L210.3 477.6 L224.0 488.2 L237.7 497.4 L251.4 505.2 L265.1 511.3 L278.9 515.7 L292.6 518.4 L306.3 519.2 L320.0 518.2 L333.7 515.4 L347.4 510.9 L361.1 504.7 L374.9 496.8 L388.6 487.5 L402.3 476.8 L416.0 464.9 L429.7 452.0 L443.4 438.2 L457.1 423.9 L470.9 409.1 L484.6 394.1 L498.3 379.1 L512.0 364.4 L525.7 350.1 L539.4 336.4 L553.1 323.7 L566.9 312.0 L580.6 301.5 L594.3 292.3 L608.0 284.7 L621.7 278.7 L635.4 274.4 L649.1 271.9 L662.9 271.2 L676.6 272.3 L690.3 275.2 L704.0 279.9 L717.7 286.3 L731.4 294.2 L745.1 303.7 L758.9 314.5 L772.6 326.4 L786.3 339.4 L800.0 353.2 L813.7 367.6 L827.4 382.4 L841.1 397.4 L854.9 412.4 L868.6 427.1 L882.3 441.4 L896.0 454.9 " stroke="url(#c01sw0)" stroke-width="92" stroke-linecap="round" fill="none"/><path d="M128.0 571.7 L141.7 582.2 L155.4 591.8 L169.1 600.4 L182.9 607.8 L196.6 613.9 L210.3 618.6 L224.0 621.9 L237.7 623.7 L251.4 623.9 L265.1 622.7 L278.9 619.9 L292.6 615.7 L306.3 610.0 L320.0 603.1 L333.7 594.9 L347.4 585.6 L361.1 575.4 L374.9 564.3 L388.6 552.6 L402.3 540.5 L416.0 528.0 L429.7 515.4 L443.4 502.9 L457.1 490.6 L470.9 478.8 L484.6 467.5 L498.3 457.0 L512.0 447.5 L525.7 439.0 L539.4 431.7 L553.1 425.7 L566.9 421.1 L580.6 417.9 L594.3 416.3 L608.0 416.1 L621.7 417.5 L635.4 420.4 L649.1 424.7 L662.9 430.5 L676.6 437.5 L690.3 445.8 L704.0 455.1 L717.7 465.4 L731.4 476.5 L745.1 488.2 L758.9 500.5 L772.6 512.9 L786.3 525.5 L800.0 538.0 L813.7 550.3 L827.4 562.1 L841.1 573.3 L854.9 583.7 L868.6 593.2 L882.3 601.6 L896.0 608.8 " stroke="url(#c01sw1)" stroke-width="92" stroke-linecap="round" fill="none"/><path d="M128.0 717.2 L141.7 721.9 L155.4 725.3 L169.1 727.6 L182.9 728.7 L196.6 728.6 L210.3 727.2 L224.0 724.6 L237.7 720.8 L251.4 716.0 L265.1 710.1 L278.9 703.2 L292.6 695.5 L306.3 687.0 L320.0 677.9 L333.7 668.3 L347.4 658.4 L361.1 648.3 L374.9 638.1 L388.6 628.1 L402.3 618.2 L416.0 608.8 L429.7 599.9 L443.4 591.6 L457.1 584.2 L470.9 577.6 L484.6 572.0 L498.3 567.5 L512.0 564.1 L525.7 561.9 L539.4 560.9 L553.1 561.1 L566.9 562.6 L580.6 565.2 L594.3 569.1 L608.0 574.0 L621.7 580.0 L635.4 586.9 L649.1 594.7 L662.9 603.3 L676.6 612.4 L690.3 622.0 L704.0 631.9 L717.7 642.1 L731.4 652.2 L745.1 662.3 L758.9 672.1 L772.6 681.5 L786.3 690.4 L800.0 698.6 L813.7 706.0 L827.4 712.5 L841.1 718.0 L854.9 722.4 L868.6 725.7 L882.3 727.9 L896.0 728.8 " stroke="url(#c01sw2)" stroke-width="92" stroke-linecap="round" fill="none"/></g></svg>