<svg xmlns="http://www.w3.org/2000/svg" viewBox="0 0 1024 1024"><defs><linearGradient id="i7SYbg" gradientUnits="userSpaceOnUse" x1="0" y1="0" x2="1024" y2="1024"><stop offset="0" stop-color="#EDE8F4"/><stop offset="1" stop-color="#DCD4EC"/></linearGradient><radialGradient id="i7SYgl" gradientUnits="userSpaceOnUse" cx="430" cy="400" r="520"><stop offset="0" stop-color="#FFFFFF" stop-opacity="0.96"/><stop offset="0.62" stop-color="#FFFFFF" stop-opacity="0.74"/><stop offset="1" stop-color="#D9D2EA" stop-opacity="0.5"/></radialGradient><filter id="i7SYbl" x="-30%" y="-30%" width="160%" height="160%"><feGaussianBlur stdDeviation="44"/></filter><filter id="i7SYsh" x="-30%" y="-30%" width="160%" height="160%"><feGaussianBlur stdDeviation="26"/></filter></defs><clipPath id="i7SYcl"><path d="M872.0 512.0 L871.9 583.3 L871.4 612.8 L870.8 635.4 L869.8 654.4 L868.5 671.0 L867.0 685.9 L865.2 699.6 L863.1 712.1 L860.7 723.8 L858.0 734.7 L855.1 744.9 L851.8 754.6 L848.3 763.6 L844.4 772.2 L840.3 780.3 L835.8 788.0 L831.0 795.3 L825.9 802.1 L820.5 808.6 L814.7 814.7 L808.6 820.5 L802.1 825.9 L795.3 831.0 L788.0 835.8 L780.3 840.3 L772.2 844.4 L763.6 848.3 L754.6 851.8 L744.9 855.1 L734.7 858.0 L723.8 860.7 L712.1 863.1 L699.6 865.2 L685.9 867.0 L671.0 868.5 L654.4 869.8 L635.4 870.8 L612.8 871.4 L583.3 871.9 L512.0 872.0 L440.7 871.9 L411.2 871.4 L388.6 870.8 L369.6 869.8 L353.0 868.5 L338.1 867.0 L324.4 865.2 L311.9 863.1 L300.2 860.7 L289.3 858.0 L279.1 855.1 L269.4 851.8 L260.4 848.3 L251.8 844.4 L243.7 840.3 L236.0 835.8 L228.7 831.0 L221.9 825.9 L215.4 820.5 L209.3 814.7 L203.5 808.6 L198.1 802.1 L193.0 795.3 L188.2 788.0 L183.7 780.3 L179.6 772.2 L175.7 763.6 L172.2 754.6 L168.9 744.9 L166.0 734.7 L163.3 723.8 L160.9 712.1 L158.8 699.6 L157.0 685.9 L155.5 671.0 L154.2 654.4 L153.2 635.4 L152.6 612.8 L152.1 583.3 L152.0 512.0 L152.1 440.7 L152.6 411.2 L153.2 388.6 L154.2 369.6 L155.5 353.0 L157.0 338.1 L158.8 324.4 L160.9 311.9 L163.3 300.2 L166.0 289.3 L168.9 279.1 L172.2 269.4 L175.7 260.4 L179.6 251.8 L183.7 243.7 L188.2 236.0 L193.0 228.7 L198.1 221.9 L203.5 215.4 L209.3 209.3 L215.4 203.5 L221.9 198.1 L228.7 193.0 L236.0 188.2 L243.7 183.7 L251.8 179.6 L260.4 175.7 L269.4 172.2 L279.1 168.9 L289.3 166.0 L300.2 163.3 L311.9 160.9 L324.4 158.8 L338.1 157.0 L353.0 155.5 L369.6 154.2 L388.6 153.2 L411.2 152.6 L440.7 152.1 L512.0 152.0 L583.3 152.1 L612.8 152.6 L635.4 153.2 L654.4 154.2 L671.0 155.5 L685.9 157.0 L699.6 158.8 L712.1 160.9 L723.8 163.3 L734.7 166.0 L744.9 168.9 L754.6 172.2 L763.6 175.7 L772.2 179.6 L780.3 183.7 L788.0 188.2 L795.3 193.0 L802.1 198.1 L808.6 203.5 L814.7 209.3 L820.5 215.4 L825.9 221.9 L831.0 228.7 L835.8 236.0 L840.3 243.7 L844.4 251.8 L848.3 260.4 L851.8 269.4 L855.1 279.1 L858.0 289.3 L860.7 300.2 L863.1 311.9 L865.2 324.4 L867.0 338.1 L868.5 353.0 L869.8 369.6 L870.8 388.6 L871.4 411.2 L871.9 440.7 L872.0 512.0 Z"/></clipPath><g clip-path="url(#i7SYcl)"><path d="M872.0 512.0 L871.9 583.3 L871.4 612.8 L870.8 635.4 L869.8 654.4 L868.5 671.0 L867.0 685.9 L865.2 699.6 L863.1 712.1 L860.7 723.8 L858.0 734.7 L855.1 744.9 L851.8 754.6 L848.3 763.6 L844.4 772.2 L840.3 780.3 L835.8 788.0 L831.0 795.3 L825.9 802.1 L820.5 808.6 L814.7 814.7 L808.6 820.5 L802.1 825.9 L795.3 831.0 L788.0 835.8 L780.3 840.3 L772.2 844.4 L763.6 848.3 L754.6 851.8 L744.9 855.1 L734.7 858.0 L723.8 860.7 L712.1 863.1 L699.6 865.2 L685.9 867.0 L671.0 868.5 L654.4 869.8 L635.4 870.8 L612.8 871.4 L583.3 871.9 L512.0 872.0 L440.7 871.9 L411.2 871.4 L388.6 870.8 L369.6 869.8 L353.0 868.5 L338.1 867.0 L324.4 865.2 L311.9 863.1 L300.2 860.7 L289.3 858.0 L279.1 855.1 L269.4 851.8 L260.4 848.3 L251.8 844.4 L243.7 840.3 L236.0 835.8 L228.7 831.0 L221.9 825.9 L215.4 820.5 L209.3 814.7 L203.5 808.6 L198.1 802.1 L193.0 795.3 L188.2 788.0 L183.7 780.3 L179.6 772.2 L175.7 763.6 L172.2 754.6 L168.9 744.9 L166.0 734.7 L163.3 723.8 L160.9 712.1 L158.8 699.6 L157.0 685.9 L155.5 671.0 L154.2 654.4 L153.2 635.4 L152.6 612.8 L152.1 583.3 L152.0 512.0 L152.1 440.7 L152.6 411.2 L153.2 388.6 L154.2 369.6 L155.5 353.0 L157.0 338.1 L158.8 324.4 L160.9 311.9 L163.3 300.2 L166.0 289.3 L168.9 279.1 L172.2 269.4 L175.7 260.4 L179.6 251.8 L183.7 243.7 L188.2 236.0 L193.0 228.7 L198.1 221.9 L203.5 215.4 L209.3 209.3 L215.4 203.5 L221.9 198.1 L228.7 193.0 L236.0 188.2 L243.7 183.7 L251.8 179.6 L260.4 175.7 L269.4 172.2 L279.1 168.9 L289.3 166.0 L300.2 163.3 L311.9 160.9 L324.4 158.8 L338.1 157.0 L353.0 155.5 L369.6 154.2 L388.6 153.2 L411.2 152.6 L440.7 152.1 L512.0 152.0 L583.3 152.1 L612.8 152.6 L635.4 153.2 L654.4 154.2 L671.0 155.5 L685.9 157.0 L699.6 158.8 L712.1 160.9 L723.8 163.3 L734.7 166.0 L744.9 168.9 L754.6 172.2 L763.6 175.7 L772.2 179.6 L780.3 183.7 L788.0 188.2 L795.3 193.0 L802.1 198.1 L808.6 203.5 L814.7 209.3 L820.5 215.4 L825.9 221.9 L831.0 228.7 L835.8 236.0 L840.3 243.7 L844.4 251.8 L848.3 260.4 L851.8 269.4 L855.1 279.1 L858.0 289.3 L860.7 300.2 L863.1 311.9 L865.2 324.4 L867.0 338.1 L868.5 353.0 L869.8 369.6 L870.8 388.6 L871.4 411.2 L871.9 440.7 L872.0 512.0 Z" fill="url(#i7SYgl)"/><g filter="url(#i7SYbl)" opacity="0.95"><path d="M150.0 430.0 L162.9 437.0 L175.9 444.0 L188.8 450.9 L201.7 457.5 L214.6 464.0 L227.6 470.1 L240.5 475.8 L253.4 481.1 L266.4 486.0 L279.3 490.4 L292.2 494.2 L305.1 497.4 L318.1 500.0 L331.0 502.0 L343.9 503.3 L356.9 503.9 L369.8 503.9 L382.7 503.2 L395.6 501.9 L408.6 499.8 L421.5 497.2 L434.4 493.9 L447.4 490.1 L460.3 485.7 L473.2 480.8 L486.1 475.5 L499.1 469.7 L512.0 463.6 L524.9 457.2 L537.9 450.5 L550.8 443.6 L563.7 436.6 L576.6 429.6 L589.6 422.5 L602.5 415.6 L615.4 408.7 L628.4 402.1 L641.3 395.7 L654.2 389.6 L667.1 383.9 L680.1 378.6 L693.0 373.7 L705.9 369.4 L718.9 365.6 L731.8 362.5 L744.7 359.9 L757.6 357.9 L770.6 356.7 L783.5 356.1 L796.4 356.1 L809.4 356.8 L822.3 358.2 L835.2 360.3 L848.1 363.0 L861.1 366.3 L874.0 370.1 " stroke="#7C5CFF" stroke-width="96" stroke-linecap="round" fill="none" opacity="0.8"/><path d="M150.0 601.9 L162.9 604.8 L175.9 607.1 L188.8 608.7 L201.7 609.7 L214.6 610.0 L227.6 609.6 L240.5 608.6 L253.4 606.9 L266.4 604.5 L279.3 601.5 L292.2 598.0 L305.1 593.8 L318.1 589.2 L331.0 584.0 L343.9 578.5 L356.9 572.5 L369.8 566.2 L382.7 559.6 L395.6 552.8 L408.6 545.9 L421.5 538.9 L434.4 531.8 L447.4 524.8 L460.3 517.9 L473.2 511.1 L486.1 504.6 L499.1 498.4 L512.0 492.5 L524.9 487.0 L537.9 481.9 L550.8 477.4 L563.7 473.3 L576.6 469.9 L589.6 467.0 L602.5 464.8 L615.4 463.2 L628.4 462.3 L641.3 462.0 L654.2 462.4 L667.1 463.5 L680.1 465.3 L693.0 467.6 L705.9 470.7 L718.9 474.3 L731.8 478.4 L744.7 483.1 L757.6 488.3 L770.6 493.9 L783.5 499.9 L796.4 506.2 L809.4 512.8 L822.3 519.6 L835.2 526.5 L848.1 533.5 L861.1 540.6 L874.0 547.6 " stroke="#22D3EE" stroke-width="96" stroke-linecap="round" fill="none" opacity="0.8"/><path d="M150.0 679.4 L162.9 675.4 L175.9 671.0 L188.8 666.2 L201.7 661.1 L214.6 655.6 L227.6 649.8 L240.5 643.9 L253.4 637.7 L266.4 631.5 L279.3 625.2 L292.2 618.9 L305.1 612.7 L318.1 606.6 L331.0 600.7 L343.9 595.0 L356.9 589.6 L369.8 584.5 L382.7 579.8 L395.6 575.5 L408.6 571.7 L421.5 568.4 L434.4 565.6 L447.4 563.3 L460.3 561.6 L473.2 560.5 L486.1 560.0 L499.1 560.1 L512.0 560.8 L524.9 562.1 L537.9 564.0 L550.8 566.4 L563.7 569.4 L576.6 572.9 L589.6 576.8 L602.5 581.2 L615.4 586.1 L628.4 591.2 L641.3 596.8 L654.2 602.5 L667.1 608.5 L680.1 614.6 L693.0 620.9 L705.9 627.2 L718.9 633.4 L731.8 639.7 L744.7 645.7 L757.6 651.7 L770.6 657.3 L783.5 662.7 L796.4 667.8 L809.4 672.4 L822.3 676.7 L835.2 680.5 L848.1 683.8 L861.1 686.6 L874.0 688.8 " stroke="#FF7A5C" stroke-width="88" stroke-linecap="round" fill="none" opacity="0.8"/></g></g><path d="M872.0 512.0 L871.9 583.3 L871.4 612.8 L870.8 635.4 L869.8 654.4 L868.5 671.0 L867.0 685.9 L865.2 699.6 L863.1 712.1 L860.7 723.8 L858.0 734.7 L855.1 744.9 L851.8 754.6 L848.3 763.6 L844.4 772.2 L840.3 780.3 L835.8 788.0 L831.0 795.3 L825.9 802.1 L820.5 808.6 L814.7 814.7 L808.6 820.5 L802.1 825.9 L795.3 831.0 L788.0 835.8 L780.3 840.3 L772.2 844.4 L763.6 848.3 L754.6 851.8 L744.9 855.1 L734.7 858.0 L723.8 860.7 L712.1 863.1 L699.6 865.2 L685.9 867.0 L671.0 868.5 L654.4 869.8 L635.4 870.8 L612.8 871.4 L583.3 871.9 L512.0 872.0 L440.7 871.9 L411.2 871.4 L388.6 870.8 L369.6 869.8 L353.0 868.5 L338.1 867.0 L324.4 865.2 L311.9 863.1 L300.2 860.7 L289.3 858.0 L279.1 855.1 L269.4 851.8 L260.4 848.3 L251.8 844.4 L243.7 840.3 L236.0 835.8 L228.7 831.0 L221.9 825.9 L215.4 820.5 L209.3 814.7 L203.5 808.6 L198.1 802.1 L193.0 795.3 L188.2 788.0 L183.7 780.3 L179.6 772.2 L175.7 763.6 L172.2 754.6 L168.9 744.9 L166.0 734.7 L163.3 723.8 L160.9 712.1 L158.8 699.6 L157.0 685.9 L155.5 671.0 L154.2 654.4 L153.2 635.4 L152.6 612.8 L152.1 583.3 L152.0 512.0 L152.1 440.7 L152.6 411.2 L153.2 388.6 L154.2 369.6 L155.5 353.0 L157.0 338.1 L158.8 324.4 L160.9 311.9 L163.3 300.2 L166.0 289.3 L168.9 279.1 L172.2 269.4 L175.7 260.4 L179.6 251.8 L183.7 243.7 L188.2 236.0 L193.0 228.7 L198.1 221.9 L203.5 215.4 L209.3 209.3 L215.4 203.5 L221.9 198.1 L228.7 193.0 L236.0 188.2 L243.7 183.7 L251.8 179.6 L260.4 175.7 L269.4 172.2 L279.1 168.9 L289.3 166.0 L300.2 163.3 L311.9 160.9 L324.4 158.8 L338.1 157.0 L353.0 155.5 L369.6 154.2 L388.6 153.2 L411.2 152.6 L440.7 152.1 L512.0 152.0 L583.3 152.1 L612.8 152.6 L635.4 153.2 L654.4 154.2 L671.0 155.5 L685.9 157.0 L699.6 158.8 L712.1 160.9 L723.8 163.3 L734.7 166.0 L744.9 168.9 L754.6 172.2 L763.6 175.7 L772.2 179.6 L780.3 183.7 L788.0 188.2 L795.3 193.0 L802.1 198.1 L808.6 203.5 L814.7 209.3 L820.5 215.4 L825.9 221.9 L831.0 228.7 L835.8 236.0 L840.3 243.7 L844.4 251.8 L848.3 260.4 L851.8 269.4 L855.1 279.1 L858.0 289.3 L860.7 300.2 L863.1 311.9 L865.2 324.4 L867.0 338.1 L868.5 353.0 L869.8 369.6 L870.8 388.6 L871.4 411.2 L871.9 440.7 L872.0 512.0 Z" stroke="#FFFFFF" stroke-width="14" fill="none" opacity="0.85"/><path d="M300 300 Q396 236 512 236" stroke="#FFFFFF" stroke-width="22" stroke-linecap="round" fill="none" opacity="0.9"/></svg>